# Blender 4.3.2
# www.blender.org
o Cube
v 0.900000 -0.000000 0.000000
v 0.500000 -1.000000 0.500000
v 0.900000 0.000000 1.000000
v 0.000000 -0.000000 0.000000
v 0.000000 0.000000 1.000000
v 1.000000 0.000000 0.500000
v 0.000000 0.000000 0.500000
vn -0.0000 1.0000 -0.0000
vn -0.0000 -0.4472 0.8944
vn -0.8944 -0.4472 -0.0000
vn 0.8805 -0.4402 0.1761
vn -0.0000 -0.4472 -0.8944
vn 0.8805 -0.4402 -0.1761
vt 0.875000 0.625000
vt 0.625000 0.750000
vt 0.625000 0.625000
vt 0.375000 0.750000
vt 0.625000 1.000000
vt 0.375000 0.000000
vt 0.625000 0.125000
vt 0.625000 0.250000
vt 0.375000 0.500000
vt 0.375000 0.250000
vt 0.625000 0.500000
vt 0.875000 0.750000
vt 0.625000 0.000000
vt 0.875000 0.500000
s 1
f 7/1/1 3/2/1 6/3/1
f 2/4/2 3/2/2 5/5/2
f 2/6/3 7/7/3 4/8/3
f 2/9/4 6/3/4 3/2/4
f 2/10/5 4/8/5 1/11/5
f 1/11/1 7/1/1 6/3/1
f 7/1/1 5/12/1 3/2/1
f 2/6/3 5/13/3 7/7/3
f 2/9/6 1/11/6 6/3/6
f 1/11/1 4/14/1 7/1/1
