# Blender 4.3.2
# www.blender.org
o DoorL
v -0.437500 0.000000 0.281250
v -0.437500 2.000000 0.281250
v -0.003125 0.000000 0.281250
v -0.003125 2.000000 0.281250
v -0.437500 0.000000 0.375000
v -0.437500 2.000000 0.375000
v -0.003125 0.000000 0.375000
v -0.003125 2.000000 0.375000
vn -0.0000 -0.0000 -1.0000
vn 1.0000 -0.0000 -0.0000
vn -0.0000 -0.0000 1.0000
vn -1.0000 -0.0000 -0.0000
vn -0.0000 -1.0000 -0.0000
vn -0.0000 1.0000 -0.0000
vt 0.306404 0.888889
vt 0.499460 0.000000
vt 0.306404 0.000000
vt 0.499460 0.888889
s 1
f 2/1/1 3/2/1 1/3/1
f 4/4/2 7/2/2 3/2/2
f 8/4/3 5/3/3 7/2/3
f 6/1/4 1/3/4 5/3/4
f 7/2/5 1/3/5 3/2/5
f 8/4/6 2/1/6 6/1/6
f 2/1/1 4/4/1 3/2/1
f 4/4/2 8/4/2 7/2/2
f 8/4/3 6/1/3 5/3/3
f 6/1/4 2/1/4 1/3/4
f 7/2/5 5/3/5 1/3/5
f 8/4/6 4/4/6 2/1/6
o DoorR
v 0.437500 0.000000 0.375000
v 0.437500 2.000000 0.375000
v 0.003125 0.000000 0.375000
v 0.003125 2.000000 0.375000
v 0.437500 0.000000 0.281250
v 0.437500 2.000000 0.281250
v 0.003125 0.000000 0.281250
v 0.003125 2.000000 0.281250
vn -0.0000 -0.0000 1.0000
vn -1.0000 -0.0000 -0.0000
vn -0.0000 -0.0000 -1.0000
vn 1.0000 -0.0000 -0.0000
vn -0.0000 -1.0000 -0.0000
vn -0.0000 1.0000 -0.0000
vt 0.684211 0.888889
vt 0.501316 0.000000
vt 0.684211 0.000000
vt 0.501316 0.888889
s 1
f 10/5/7 11/6/7 9/7/7
f 12/8/8 15/6/8 11/6/8
f 16/8/9 13/7/9 15/6/9
f 14/5/10 9/7/10 13/7/10
f 15/6/11 9/7/11 11/6/11
f 16/8/12 10/5/12 14/5/12
f 10/5/7 12/8/7 11/6/7
f 12/8/8 16/8/8 15/6/8
f 16/8/9 14/5/9 13/7/9
f 14/5/10 10/5/10 9/7/10
f 15/6/11 13/7/11 9/7/11
f 16/8/12 12/8/12 10/5/12
o Frames
v 0.500000 0.000000 0.375000
v 0.500000 2.000000 0.375000
v 0.500000 0.000000 0.500000
v 0.500000 2.000000 0.500000
v 0.437500 0.000000 0.375000
v 0.437500 2.000000 0.375000
v 0.437500 0.000000 0.500000
v -0.437500 0.000000 0.375000
v -0.437500 2.000000 0.375000
v -0.437500 0.000000 0.500000
v -0.437500 2.000000 0.500000
v -0.500000 0.000000 0.375000
v -0.500000 2.000000 0.375000
v -0.500000 0.000000 0.500000
v -0.500000 2.000000 0.500000
v 1.500000 0.000000 0.375000
v 1.500000 2.000000 0.375000
v 1.500000 0.000000 0.500000
v 1.500000 2.000000 0.500000
v -1.500000 0.000000 0.500000
v -1.500000 2.000000 0.500000
v -1.500000 0.000000 0.375000
v -1.500000 2.000000 0.375000
v -1.500000 3.000000 0.375000
v -0.500000 3.000000 0.375000
v 1.500000 3.000000 0.375000
v 0.500000 3.000000 0.375000
v 0.437500 3.000000 0.500000
v 0.500000 3.000000 0.500000
v 1.500000 3.000000 0.500000
v -1.500000 3.000000 0.500000
v -0.437500 3.000000 0.500000
v -0.500000 3.000000 0.500000
v -0.437500 3.000000 0.375000
v 0.437500 2.000000 0.500000
v 0.437500 3.000000 0.375000
vn -0.0000 -0.0000 1.0000
vn -1.0000 -0.0000 -0.0000
vn -0.0000 -0.0000 -1.0000
vn -0.0000 -1.0000 -0.0000
vn 1.0000 -0.0000 -0.0000
vn -0.0000 1.0000 -0.0000
vt 0.421314 0.549406
vt 0.388819 0.549406
vt 0.421314 0.526539
vt 0.388819 0.526539
vt 0.572958 0.549406
vt 0.572958 0.526539
vt 0.605453 0.549406
vt 0.605453 0.526539
s 0
f 51/9/13 19/10/13 20/10/13
f 22/11/14 23/9/14 51/9/14
f 18/12/15 21/11/15 22/11/15
f 21/11/16 19/10/16 23/9/16
f 27/13/17 24/14/17 25/14/17
f 31/15/13 26/13/13 27/13/13
f 28/16/15 39/16/15 29/16/15
f 25/14/15 28/16/15 29/16/15
f 28/16/16 26/13/16 30/15/16
f 18/12/15 42/12/15 33/12/15
f 26/13/18 21/11/18 24/14/18
f 25/14/16 51/9/16 27/13/16
f 39/16/14 36/15/14 37/15/14
f 29/16/15 50/14/15 25/14/15
f 18/12/15 32/12/15 17/12/15
f 17/12/16 34/10/16 19/10/16
f 30/15/16 38/16/16 28/16/16
f 35/10/17 32/12/17 33/12/17
f 22/11/15 43/12/15 18/12/15
f 45/10/18 52/11/18 44/9/18
f 50/14/18 49/15/18 48/13/18
f 41/16/18 47/15/18 49/15/18
f 45/10/18 42/12/18 43/12/18
f 37/15/14 40/16/14 39/16/14
f 33/12/17 46/10/17 35/10/17
f 39/16/15 41/16/15 29/16/15
f 48/13/18 52/14/18 50/14/18
f 50/14/15 22/14/15 25/14/15
f 51/9/13 23/9/13 19/10/13
f 22/11/14 21/11/14 23/9/14
f 18/12/15 17/12/15 21/11/15
f 21/11/16 17/12/16 19/10/16
f 27/13/17 26/13/17 24/14/17
f 31/15/13 30/15/13 26/13/13
f 28/16/15 38/16/15 39/16/15
f 25/14/15 24/14/15 28/16/15
f 28/16/16 24/14/16 26/13/16
f 18/12/15 43/12/15 42/12/15
f 26/13/18 23/9/18 21/11/18
f 25/14/16 22/11/16 51/9/16
f 39/16/14 38/16/14 36/15/14
f 29/16/15 41/16/15 50/14/15
f 18/12/15 33/12/15 32/12/15
f 17/12/16 32/12/16 34/10/16
f 30/15/16 36/15/16 38/16/16
f 35/10/17 34/10/17 32/12/17
f 22/11/15 52/11/15 43/12/15
f 45/10/18 43/12/18 52/11/18
f 50/14/18 41/16/18 49/15/18
f 41/16/18 40/16/18 47/15/18
f 45/10/18 46/10/18 42/12/18
f 37/15/14 47/15/14 40/16/14
f 33/12/17 42/12/17 46/10/17
f 39/16/15 40/16/15 41/16/15
f 48/13/18 44/13/18 52/14/18
f 50/14/15 52/14/15 22/14/15
o Wall
v 0.500000 0.000000 0.500000
v 0.500000 2.000000 0.500000
v -0.437500 2.000000 0.500000
v -0.500000 0.000000 0.500000
v -0.500000 2.000000 0.500000
v 1.500000 0.000000 0.500000
v 1.500000 2.000000 0.500000
v -1.500000 0.000000 0.500000
v -1.500000 2.000000 0.500000
v 0.437500 3.000000 0.500000
v 0.500000 3.000000 0.500000
v 1.500000 3.000000 0.500000
v -1.500000 3.000000 0.500000
v -0.437500 3.000000 0.500000
v -0.500000 3.000000 0.500000
v 0.437500 2.000000 0.500000
vn -0.0000 -0.0000 1.0000
vt -1.000000 -1.000000
vt 0.000000 1.000000
vt -1.000000 1.000000
vt -1.000000 2.000000
vt 0.000000 2.000000
vt 0.062500 1.000000
vt 0.937500 1.000000
vt 0.062500 2.000000
vt 1.000000 2.000000
vt 1.000000 1.000000
vt 2.000000 1.000000
vt 2.000000 2.000000
vt 1.000000 -1.000000
vt 0.000000 -1.000000
vt 0.937500 2.000000
vt 2.000000 -1.000000
s 0
f 60/17/19 57/18/19 61/19/19
f 65/20/19 57/18/19 67/21/19
f 55/22/19 67/21/19 57/18/19
f 68/23/19 66/24/19 55/22/19
f 63/25/19 68/23/19 54/26/19
f 63/25/19 59/27/19 64/28/19
f 53/29/19 59/27/19 54/26/19
f 60/17/19 56/30/19 57/18/19
f 65/20/19 61/19/19 57/18/19
f 55/22/19 66/24/19 67/21/19
f 68/23/19 62/31/19 66/24/19
f 63/25/19 62/31/19 68/23/19
f 63/25/19 54/26/19 59/27/19
f 53/29/19 58/32/19 59/27/19
